HIERARCHY
ROOT Hips
{
	OFFSET -3.958830 18.904000 13.208200
	CHANNELS 6 Xposition Yposition Zposition Zrotation Yrotation Xrotation 
	JOINT LHipJoint
	{
		OFFSET 0.000000 0.000000 0.000000
		CHANNELS 3 Zrotation Yrotation Xrotation
		JOINT LeftUpLeg
		{
			OFFSET 1.800000 -1.400000 0.085000
			CHANNELS 3 Zrotation Yrotation Xrotation
			JOINT LeftLeg
			{
				OFFSET 2.215000 -6.000000 0.000000
				CHANNELS 3 Zrotation Yrotation Xrotation
				JOINT LeftFoot
				{
					OFFSET 2.500000 -6.900000 0.000000
					CHANNELS 3 Zrotation Yrotation Xrotation
					JOINT LeftToeBase
					{
						OFFSET 0.200000 -0.500000 1.950000
						CHANNELS 3 Zrotation Yrotation Xrotation
						End Site
						{
							OFFSET 0.000000 0.000000 0.000000
						}
					}
				}
			}
		}
	}
	JOINT RHipJoint
	{
		OFFSET 0.000000 0.000000 0.000000
		CHANNELS 3 Zrotation Yrotation Xrotation
		JOINT RightUpLeg
		{
			OFFSET -1.800000 -1.400000 0.085000
			CHANNELS 3 Zrotation Yrotation Xrotation
			JOINT RightLeg
			{
				OFFSET -2.215000 -6.000000 0.000000
				CHANNELS 3 Zrotation Yrotation Xrotation
				JOINT RightFoot
				{
					OFFSET -2.500000 -6.900000 0.000000
					CHANNELS 3 Zrotation Yrotation Xrotation
					JOINT RightToeBase
					{
						OFFSET -0.200000 -0.500000 1.950000
						CHANNELS 3 Zrotation Yrotation Xrotation
						End Site
						{
							OFFSET 0.000000 0.000000 0.000000
						}
					}
				}
			}
		}
	}
	JOINT LowerBack
	{
		OFFSET 0.000000 0.000000 0.000000
		CHANNELS 3 Zrotation Yrotation Xrotation
		JOINT Spine
		{
			OFFSET -0.087000 1.940000 -0.288900
			CHANNELS 3 Zrotation Yrotation Xrotation
			JOINT Spine1
			{
				OFFSET 0.000000 1.950000 0.060000
				CHANNELS 3 Zrotation Yrotation Xrotation
				JOINT Neck
				{
					OFFSET 0.000000 0.000000 0.000000
					CHANNELS 3 Zrotation Yrotation Xrotation
					JOINT Neck1
					{
						OFFSET 0.000000 1.600000 0.340000
						CHANNELS 3 Zrotation Yrotation Xrotation
						JOINT Head
						{
							OFFSET 0.000000 1.667000 -0.240000
							CHANNELS 3 Zrotation Yrotation Xrotation
							End Site
							{
								OFFSET 0.000000 0.000000 0.000000
							}
						}
					}
				}
				JOINT LeftShoulder
				{
					OFFSET 0.000000 0.000000 0.000000
					CHANNELS 3 Zrotation Yrotation Xrotation
					JOINT LeftArm
					{
						OFFSET 2.700000 1.550000 -0.730000
						CHANNELS 3 Zrotation Yrotation Xrotation
						JOINT LeftForeArm
						{
							OFFSET 5.450000 0.000000 0.000000
							CHANNELS 3 Zrotation Yrotation Xrotation
							JOINT LeftHand
							{
								OFFSET 3.450000 0.000000 0.000000
								CHANNELS 3 Zrotation Yrotation Xrotation
								JOINT LeftHandIndex1
								{
									OFFSET 0.750000 0.000000 0.000000
									CHANNELS 3 Zrotation Yrotation Xrotation
									End Site
									{
										OFFSET 0.000000 0.000000 0.000000
									}
								}
							}
						}
					}
				}
				JOINT RightShoulder
				{
					OFFSET 0.000000 0.000000 0.000000
					CHANNELS 3 Zrotation Yrotation Xrotation
					JOINT RightArm
					{
						OFFSET -2.700000 1.550000 -0.730000
						CHANNELS 3 Zrotation Yrotation Xrotation
						JOINT RightForeArm
						{
							OFFSET -5.450000 0.000000 0.000000
							CHANNELS 3 Zrotation Yrotation Xrotation
							JOINT RightHand
							{
								OFFSET -3.450000 0.000000 0.000000
								CHANNELS 3 Zrotation Yrotation Xrotation
								JOINT RightHandIndex1
								{
									OFFSET -0.750000 0.000000 0.000000
									CHANNELS 3 Zrotation Yrotation Xrotation
									End Site
									{
										OFFSET 0.000000 0.000000 0.000000
									}
								}
							}
						}
					}
				}
			}
		}
	}
}
MOTION
Frames: 9
Frame Time: 0.016667
0.495420 16.781520 -2.708830 -1.122049 22.427987 -15.626479 -14.866073 12.972327 3.336111 1.826721 1.608483 9.112420 -8.241564 6.442674 7.780495 1.307025 4.224296 3.156251 0.632840 0.587400 0.595040 18.430119 -11.573244 2.785152 -11.267923 3.318495 -17.275208 10.034514 -13.165421 45.861201 -1.358063 -7.364972 1.570905 -0.203540 -0.569130 0.357140 -5.009811 -0.125798 -7.992545 31.679193 -22.537224 30.982764 -38.690823 -6.531111 11.162175 18.370229 -3.212067 -20.680004 -12.538491 -3.698945 53.644284 5.405840 -15.163800 -16.046580 -18.342654 -8.016052 3.972624 -46.129812 4.866522 -19.207981 -18.514127 -49.694245 3.201943 -2.013840 4.083010 0.301600 -0.603780 0.773800 0.257690 -20.712670 21.340354 17.373135 17.777725 -12.886026 -20.601428 -23.452435 47.324311 -7.124463 2.747787 -2.845872 0.653880 -0.404390 -0.689390 0.302090 
0.512120 16.769820 -2.694700 -0.740903 23.392362 -15.119625 -14.847503 12.786028 3.323075 1.456662 1.771264 9.578439 -8.430338 6.352799 6.932975 1.288380 4.198209 3.149565 0.670280 0.627740 0.640900 18.472566 -11.575088 2.828517 -12.636782 3.426593 -17.968927 11.167656 -13.862212 46.035569 -1.409992 -7.542335 1.490126 -0.179080 -0.600780 0.363860 -5.120451 0.105292 -8.048080 32.101285 -22.307497 29.142773 -39.012005 -6.110308 11.921465 17.701181 -2.047763 -21.167060 -10.225689 -4.887137 55.074310 5.244360 -15.247600 -16.313770 -18.951126 -8.795535 4.089528 -45.900450 5.782773 -19.267152 -16.907360 -46.269376 2.296590 -2.009800 4.050960 0.325280 -0.615700 0.807170 0.254920 -19.092102 21.493497 17.889690 13.634282 -12.483403 -17.732254 -20.494209 39.385811 -4.440463 2.872965 -2.771915 0.659650 -0.404240 -0.709420 0.287130 
0.528050 16.759130 -2.677500 -0.338953 24.376665 -14.352232 -14.823749 12.595546 3.287231 1.020577 1.910884 9.708509 -8.610564 6.269345 6.313415 1.254011 4.157581 3.151266 0.698050 0.651540 0.678450 18.524035 -11.575193 2.876697 -14.024103 3.465613 -18.758223 12.325043 -14.554282 46.004643 -1.452048 -7.695125 1.423717 -0.161880 -0.623870 0.366790 -5.250003 0.355359 -8.091922 32.647437 -21.950547 26.992105 -39.385477 -5.682165 12.430829 16.893323 -0.888178 -21.492583 -7.843384 -6.143468 56.361172 5.084850 -15.306340 -16.432590 -19.252157 -9.371406 4.270091 -45.865831 6.776020 -19.109914 -15.725242 -43.297165 1.696969 -2.028677 4.007763 0.352130 -0.623650 0.831010 0.252800 -17.489912 21.361729 18.352525 9.940687 -11.672757 -14.658240 -17.942329 32.573718 -2.605870 2.947157 -2.622201 0.656980 -0.398440 -0.721290 0.268060 
0.542110 16.750240 -2.660210 0.054239 25.260644 -13.476514 -14.802943 12.430893 3.244344 0.592251 2.031578 9.614761 -8.809813 6.202251 5.851407 1.225387 4.107889 3.157115 0.715470 0.664430 0.705720 18.572667 -11.557466 2.928645 -15.323130 3.479156 -19.545217 13.436599 -15.181192 45.830343 -1.482241 -7.818193 1.367808 -0.153400 -0.642560 0.368960 -5.365814 0.551471 -8.123910 33.192769 -21.502127 24.910058 -39.692664 -5.273204 12.634459 16.107839 0.031512 -21.750581 -5.978525 -7.217495 57.524990 5.072050 -15.514060 -16.308360 -19.349651 -9.832661 4.484121 -46.031882 7.729977 -18.779753 -14.676825 -40.520694 1.241399 -2.061629 3.959161 0.372730 -0.630840 0.849580 0.249400 -16.042746 21.209890 18.724652 6.817383 -10.802381 -11.696100 -15.735938 26.878635 -1.356200 3.006807 -2.429263 0.655780 -0.397400 -0.730320 0.254560 
0.553950 16.744640 -2.644350 0.430968 26.037008 -12.615108 -14.787068 12.298072 3.203398 0.198780 2.140312 9.419604 -9.013421 6.153437 5.507216 1.200746 4.056952 3.164898 0.727210 0.674080 0.723720 18.613853 -11.527975 2.978241 -16.502001 3.462094 -20.224743 14.461115 -15.720448 45.538529 -1.504598 -7.909252 1.326843 -0.147940 -0.658550 0.366190 -5.460166 0.693104 -8.146998 33.651834 -21.002776 23.063657 -39.903195 -4.900738 12.626428 15.396050 0.777035 -21.952181 -4.487195 -8.126311 58.648750 5.114580 -15.771730 -16.143250 -19.371218 -10.266198 4.745454 -46.270331 8.634563 -18.380178 -13.838304 -38.005795 0.910204 -2.094155 3.908805 0.390260 -0.639160 0.864670 0.248160 -14.750770 21.063496 19.005186 4.232309 -9.920399 -9.008987 -13.829270 22.166152 -0.530542 3.057716 -2.211304 0.653750 -0.394180 -0.737490 0.244570 
0.563040 16.741840 -2.630420 0.804633 26.665590 -11.846046 -14.775405 12.192856 3.169197 -0.150556 2.241974 9.224714 -9.209242 6.119155 5.238027 1.185686 4.010094 3.171785 0.738350 0.684990 0.739950 18.647228 -11.491144 3.025922 -17.576627 3.440986 -20.767445 15.411496 -16.177157 45.182542 -1.523241 -7.977467 1.293915 -0.144050 -0.675480 0.363460 -5.532468 0.792789 -8.167002 33.948574 -20.486055 21.571786 -40.016620 -4.559355 12.496432 14.777981 1.382011 -22.140336 -3.284176 -8.897386 59.752914 5.193620 -16.054740 -16.005130 -19.367012 -10.693685 5.027480 -46.473159 9.455566 -17.950163 -13.232356 -35.718254 0.682388 -2.120199 3.862581 0.404280 -0.649520 0.880850 0.247740 -13.620353 20.963621 19.221817 2.178485 -9.080855 -6.743701 -12.247438 18.258990 -0.014270 3.112059 -1.992643 0.655260 -0.393250 -0.746770 0.238530 
0.570140 16.740550 -2.617970 1.151173 27.159458 -11.169923 -14.767076 12.109326 3.142688 -0.456809 2.336353 9.050487 -9.386948 6.090915 4.999519 1.174134 3.967324 3.177966 0.750100 0.697860 0.756840 18.673578 -11.451929 3.071697 -18.515454 3.427885 -21.206579 16.266346 -16.556557 44.817193 -1.539380 -8.028698 1.268328 -0.138880 -0.693620 0.358900 -5.585853 0.868206 -8.187595 34.118013 -19.948692 20.388910 -40.056010 -4.219148 12.269583 14.241673 1.959665 -22.310819 -2.084502 -9.653697 60.799437 5.224670 -16.284150 -15.901250 -19.420779 -11.143318 5.337244 -46.547299 10.219902 -17.522755 -12.815853 -33.694941 0.530137 -2.137146 3.820659 0.417270 -0.660730 0.897370 0.247920 -12.577962 20.875162 19.372682 0.548495 -8.322386 -4.905636 -10.895349 15.025002 0.299332 3.164971 -1.786754 0.656550 -0.392050 -0.758240 0.233010 
0.576120 16.739770 -2.607240 1.439381 27.549812 -10.604034 -14.761537 12.043191 3.121395 -0.698811 2.419335 8.910611 -9.534076 6.067174 4.788753 1.164523 3.929629 3.180959 0.761550 0.711090 0.775150 18.693724 -11.412280 3.116766 -19.330379 3.426994 -21.558956 17.053985 -16.893561 44.477607 -1.554957 -8.072760 1.245986 -0.134640 -0.713260 0.354530 -5.623815 0.928387 -8.209796 34.217549 -19.425881 19.479245 -40.044898 -3.892683 11.964049 13.780230 2.529431 -22.455910 -0.833394 -10.431340 61.762084 5.201250 -16.440110 -15.910000 -19.565610 -11.614584 5.670231 -46.518016 10.929061 -17.124053 -12.433137 -31.940153 0.405531 -2.149256 3.784631 0.428790 -0.672100 0.913240 0.244570 -11.589734 20.787012 19.450437 -0.774723 -7.665711 -3.465101 -9.712205 12.346651 0.485888 3.213274 -1.600400 0.659750 -0.391950 -0.767800 0.226670 
0.581040 16.738400 -2.597580 1.679766 27.859236 -10.107243 -14.758197 11.992263 3.102399 -0.872401 2.487413 8.763263 -9.683178 6.053293 4.615680 1.158591 3.900665 3.182879 0.766950 0.719390 0.787600 18.709063 -11.371816 3.160666 -20.033687 3.439987 -21.852281 17.781078 -17.186567 44.148052 -1.567671 -8.109642 1.226351 -0.132380 -0.727890 0.351150 -5.649477 0.968536 -8.230993 34.265600 -18.928495 18.732804 -39.984188 -3.593952 11.649083 13.394557 3.010539 -22.578302 0.276254 -11.150429 62.570296 5.083960 -16.589030 -15.819030 -19.721669 -12.054991 5.993248 -46.460575 11.584770 -16.738560 -12.203514 -30.353681 0.321856 -2.162497 3.750587 0.435840 -0.680480 0.926830 0.241550 -10.721390 20.725672 19.472522 -1.865404 -7.087320 -2.376181 -8.686163 10.111656 0.590768 3.258606 -1.438665 0.662200 -0.390240 -0.773730 0.223260 
